<mxfile host="app.diagrams.net" agent="Mozilla/5.0 (Windows NT 10.0; Win64; x64) AppleWebKit/537.36 (KHTML, like Gecko) Chrome/133.0.0.0 Safari/537.36" version="26.1.0">
  <diagram name="Page-1" id="CdVpNeLvfebWy8Q-7PJm">
    <mxGraphModel dx="1434" dy="738" grid="1" gridSize="10" guides="1" tooltips="1" connect="1" arrows="1" fold="1" page="1" pageScale="1" pageWidth="827" pageHeight="1169" math="0" shadow="0">
      <root>
        <mxCell id="0" />
        <mxCell id="1" parent="0" />
        <mxCell id="Nrr9BdpluMPSzvRgAk4l-3" value="&lt;div style=&quot;background-color: rgb(30, 31, 34); color: rgb(188, 190, 196);&quot;&gt;&lt;pre style=&quot;font-family: &amp;quot;JetBrains Mono&amp;quot;, monospace;&quot;&gt;&lt;font style=&quot;font-size: 18px;&quot;&gt;JsonbColumnSerializer&lt;/font&gt;&lt;/pre&gt;&lt;/div&gt;" style="text;whiteSpace=wrap;html=1;" vertex="1" parent="1">
          <mxGeometry x="340" y="170" width="210" height="70" as="geometry" />
        </mxCell>
        <mxCell id="Nrr9BdpluMPSzvRgAk4l-5" value="" style="edgeStyle=orthogonalEdgeStyle;rounded=0;orthogonalLoop=1;jettySize=auto;html=1;" edge="1" parent="1" source="Nrr9BdpluMPSzvRgAk4l-4" target="Nrr9BdpluMPSzvRgAk4l-3">
          <mxGeometry relative="1" as="geometry" />
        </mxCell>
        <mxCell id="Nrr9BdpluMPSzvRgAk4l-4" value="&lt;font style=&quot;font-size: 18px;&quot;&gt;string jsonb fields&lt;/font&gt;" style="shape=note;whiteSpace=wrap;html=1;backgroundOutline=1;fontColor=#000000;darkOpacity=0.05;fillColor=#FFF9B2;strokeColor=none;fillStyle=solid;direction=west;gradientDirection=north;gradientColor=#FFF2A1;shadow=1;size=20;pointerEvents=1;" vertex="1" parent="1">
          <mxGeometry x="910" y="70" width="210" height="80" as="geometry" />
        </mxCell>
        <UserObject label="&lt;div style=&quot;background-color: rgb(30, 31, 34); color: rgb(188, 190, 196);&quot;&gt;&lt;pre style=&quot;font-family: &amp;quot;JetBrains Mono&amp;quot;, monospace;&quot;&gt;&lt;span style=&quot;font-size: 9.8pt;&quot;&gt;&lt;span style=&quot;color: rgb(207, 142, 109);&quot;&gt;public &lt;/span&gt;String &lt;span style=&quot;color: rgb(86, 168, 245);&quot;&gt;toString&lt;/span&gt;(List&amp;lt;IColumnField&amp;lt;?&amp;gt;&amp;gt; columnFields) &lt;span style=&quot;color: rgb(207, 142, 109);&quot;&gt;throws &lt;/span&gt;JsonProcessingException {&lt;br&gt;    Map&amp;lt;String, String&amp;gt; serializedFields = &lt;span style=&quot;color: rgb(207, 142, 109);&quot;&gt;new &lt;/span&gt;LinkedHashMap&amp;lt;&amp;gt;();&lt;br&gt;    &lt;span style=&quot;color: rgb(207, 142, 109);&quot;&gt;for &lt;/span&gt;(IColumnField&amp;lt;?&amp;gt; field : columnFields) {&lt;br&gt;        &lt;/span&gt;&lt;font style=&quot;font-size: 18px;&quot;&gt;serializedFields.put(field.getFieldName(), serializeField(field));&lt;/font&gt;&lt;span style=&quot;font-size: 9.8pt;&quot;&gt;&lt;br&gt;    }&lt;br&gt;    &lt;/span&gt;&lt;span style=&quot;font-size: 9.8pt; color: rgb(207, 142, 109);&quot;&gt;return &lt;/span&gt;&lt;span style=&quot;font-size: 9.8pt; color: rgb(199, 125, 187);&quot;&gt;objectMapper&lt;/span&gt;&lt;span style=&quot;font-size: 9.8pt;&quot;&gt;.writeValueAsString(serializedFields);&lt;br&gt;}&lt;/span&gt;&lt;/pre&gt;&lt;/div&gt;" link="&lt;div style=&quot;background-color:#1e1f22;color:#bcbec4&quot;&gt;&lt;pre style=&quot;font-family:&#39;JetBrains Mono&#39;,monospace;font-size:9.8pt;&quot;&gt;&lt;span style=&quot;color:#cf8e6d;&quot;&gt;public &lt;/span&gt;String &lt;span style=&quot;color:#56a8f5;&quot;&gt;toString&lt;/span&gt;(List&amp;lt;IColumnField&amp;lt;?&amp;gt;&amp;gt; columnFields) &lt;span style=&quot;color:#cf8e6d;&quot;&gt;throws &lt;/span&gt;JsonProcessingException {&lt;br&gt;    Map&amp;lt;String, String&amp;gt; serializedFields = &lt;span style=&quot;color:#cf8e6d;&quot;&gt;new &lt;/span&gt;LinkedHashMap&amp;lt;&amp;gt;();&lt;br&gt;    &lt;span style=&quot;color:#cf8e6d;&quot;&gt;for &lt;/span&gt;(IColumnField&amp;lt;?&amp;gt; field : columnFields) {&lt;br&gt;        serializedFields.put(field.getFieldName(), serializeField(field));&lt;br&gt;    }&lt;br&gt;    &lt;span style=&quot;color:#cf8e6d;&quot;&gt;return &lt;/span&gt;&lt;span style=&quot;color:#c77dbb;&quot;&gt;objectMapper&lt;/span&gt;.writeValueAsString(serializedFields);&lt;br&gt;}&lt;/pre&gt;&lt;/div&gt;" id="Nrr9BdpluMPSzvRgAk4l-6">
          <mxCell style="text;whiteSpace=wrap;html=1;" vertex="1" parent="1">
            <mxGeometry x="134" y="210" width="560" height="160" as="geometry" />
          </mxCell>
        </UserObject>
        <mxCell id="Nrr9BdpluMPSzvRgAk4l-7" value="&quot;name&quot;: &quot;nameeeee&quot;,&#xa;  &quot;access&quot;: &quot;accessssss&quot;,&#xa;  &quot;status&quot;: &quot;statussssss&quot;" style="text;whiteSpace=wrap;" vertex="1" parent="1">
          <mxGeometry x="570" y="50" width="170" height="70" as="geometry" />
        </mxCell>
      </root>
    </mxGraphModel>
  </diagram>
</mxfile>
